<svg id="Capa_1" enable-background="new 0 0 512 512" height="512" viewBox="0 0 512 512" width="512" xmlns="http://www.w3.org/2000/svg"><g><path d="m137.81 28.87c35.36-18.45 75.56-28.87 118.19-28.87 43.86 0 85.14 11.03 121.22 30.47" fill="#d82e3d"/><path d="m476.63 330.63c-18.59 54.98-33.44 109.03-81.22 140.11-5.9 3.84-11.96 7.44-18.18 10.79-37.95 2.04-75.91 3.12-113.86 3.24-4.91.03-9.83.03-14.74 0-37.95-.12-75.9-1.2-113.85-3.24-5.2-2.8-10.3-5.78-15.28-8.93-.98-.61-1.95-1.23-2.91-1.86-19.04-12.38-29.184-48.95-44.255-65.81-22.78-25.45-29.865-37.88-41.056-70.95-2.44-54.73-20.27-105.37-17.82-160.1 1.65-37.39 4.45-74.79 8.39-112.18 1.39-13.18 11.91-23.55 25.1-24.78 29.28-2.72 58.57-4.87 87.85-6.45 37.94-2.04 75.89-3.12 113.83-3.24 4.91-.03 9.83-.03 14.74 0 37.95.12 75.9 1.2 113.85 3.24 29.28 1.58 58.56 3.73 87.83 6.45 13.19 1.23 23.71 11.6 25.1 24.78 3.94 37.39 6.74 74.79 8.39 112.18 2.451 54.73-19.469 102.02-21.909 156.75z" fill="#f1f4f6"/><path d="m60.61 75.85c56.65-5.01 113.9-7.86 170.65-8.49v377.28c-44.096-.49-88.493-2.319-132.676-5.461-22.037-1.567-39.627-18.97-41.354-40.995-8.407-107.214-7.28-215.374 3.38-322.334z" fill="#b1e4f9"/><path d="m54.081 256.252c0-6.918 5.608-12.527 12.527-12.527h59.743c6.918 0 12.527 5.608 12.527 12.527 0 6.918 5.608 12.527 12.527 12.527h40.638c6.918 0 12.527 5.608 12.527 12.527 0 6.918-5.608 12.527-12.527 12.527h-40.638c-6.918 0-12.527 5.608-12.527 12.527 0 6.918-5.608 12.527-12.527 12.527h-93.49c-6.918 0-12.527-5.608-12.527-12.527 0-6.918 5.608-12.527 12.527-12.527h47.237c6.918 0 12.527-5.608 12.527-12.527 0-6.918-5.608-12.527-12.527-12.527h-13.491c-6.918-.001-12.526-5.609-12.526-12.527z" fill="#fff"/><path d="m404.494 439.795c-41.235 2.766-82.626 4.388-123.754 4.845v-377.28c56.75.63 114 3.48 170.65 8.49 10.354 103.887 11.714 208.906 4.081 313.091-1.999 27.278-23.687 49.024-50.977 50.854z" fill="#b1e4f9"/><circle cx="387.066" cy="155.456" fill="#ffbb16" r="63.259"/><path d="m336.99 180.677c0-6.918 5.608-12.527 12.527-12.527h59.743c6.918 0 12.527 5.608 12.527 12.527 0 6.918 5.608 12.527 12.527 12.527h13.491c6.918 0 12.527 5.608 12.527 12.527 0 6.918-5.608 12.527-12.527 12.527h-13.491c-6.918 0-12.527 5.608-12.527 12.527 0 6.918-5.608 12.527-12.527 12.527h-93.49c-6.918 0-12.527-5.608-12.527-12.527 0-6.918 5.608-12.527 12.527-12.527h47.237c6.918 0 12.527-5.608 12.527-12.527 0-6.918-5.608-12.527-12.527-12.527h-13.491c-6.917 0-12.526-5.609-12.526-12.527z" fill="#fff"/><g fill="#d0e2e7"><path d="m238.29 60.25c-1.9-1.88-4.51-2.93-7.14-2.89-47.79.53-96.12 2.64-144.05 6.29-9.14.69-18.27 1.44-27.37 2.24-4.79.42-8.59 4.19-9.07 8.97-1.07 10.74-2.04 21.49-2.92 32.25-8.09 98.95-8.09 198.82 0 297.77 5.42 7.58 11.24 14.84 17.44 21.76 6.86 7.67 14.17 14.92 21.9 21.71 47.93 3.65 96.28 5.76 144.07 6.29h.11c2.63 0 5.16-1.04 7.03-2.89 1.9-1.88 2.97-4.44 2.97-7.11v-377.28c0-2.67-1.07-5.23-2.97-7.11zm-17.03 374.25c-50.34-.79-101.22-3.34-151.5-7.6-10.78-113.45-10.78-228.35 0-341.8 50.28-4.26 101.16-6.81 151.5-7.6z"/><path d="m464.26 107.09c-.88-10.76-1.85-21.5-2.92-32.23-.48-4.78-4.28-8.55-9.07-8.97-9.09-.8-18.21-1.55-27.34-2.24-47.94-3.65-96.28-5.76-144.08-6.29-2.66-.03-5.24 1.01-7.14 2.89s-2.97 4.44-2.97 7.11v377.28c0 2.67 1.07 5.23 2.97 7.11 1.87 1.85 4.4 2.89 7.03 2.89h.11c47.8-.53 96.14-2.64 144.08-6.29 14.7-12.92 27.9-27.49 39.32-43.43 8.1-98.97 8.1-198.86.01-297.83zm-22.02 319.81c-50.28 4.26-101.16 6.81-151.5 7.6v-357c50.34.79 101.22 3.34 151.5 7.6 10.78 113.45 10.78 228.35 0 341.8z"/><path d="m263.37 27.23v457.54c-4.91.03-9.83.03-14.74 0v-457.54c4.91-.03 9.83-.03 14.74 0z"/></g><path d="m0 15.787h512v25.56h-512z" fill="#454045"/><path d="m119.5 472.6c-.98-.61-1.95-1.23-2.91-1.86-70.18-45.65-116.59-124.78-116.59-214.74v-245.21h134.2s1.63 6.66 3.61 18.08c9.35 53.98 26.35 214.47-85.31 282.23v22.88s72.98 26.05 67 138.62z" fill="#61a2f9"/><path d="m392.5 472.6c.98-.61 1.95-1.23 2.91-1.86 70.18-45.65 116.59-124.78 116.59-214.74v-245.21h-134.2s-1.63 6.66-3.61 18.08c-9.35 53.98-26.35 214.47 85.31 282.23v22.88s-72.98 26.05-67 138.62z" fill="#61a2f9"/><path d="m477.43 311.1v22.88s-38.62 20.93-43.79 106.34c-11.72 11.31-24.52 21.51-38.23 30.42-.96.63-1.93 1.25-2.91 1.86-5.98-112.57 67-138.62 67-138.62v-22.88c-111.66-67.76-94.66-228.25-85.31-282.23 1.98-11.42 3.61-18.08 3.61-18.08h45.82s-1.07 6.66-2.38 18.08c-6.15 53.98-17.35 214.47 56.19 282.23z" fill="#4a81f6"/><path d="m65.18 426.64c-40.54-45.29-65.18-105.09-65.18-170.64v-245.21h74.62s3.32 24.3 4.94 59.74c3.25 70.74-.25 185.87-50.37 240.57v22.88s29.07 18.66 35.99 92.66z" fill="#4a81f6"/><path d="m63.91 322.54c0 3.16-1.28 6.02-3.35 8.09-2.06 2.06-4.91 3.34-8.06 3.35h-40.4c-2.39-7.48-4.45-15.11-6.15-22.88h46.55c6.31.02 11.41 5.13 11.41 11.44z" fill="#d82e3d"/><path d="m448.09 322.54c0 3.16 1.28 6.02 3.35 8.09 2.06 2.06 4.91 3.34 8.06 3.35h40.4c2.39-7.48 4.45-15.11 6.15-22.88h-46.55c-6.31.02-11.41 5.13-11.41 11.44z" fill="#d82e3d"/><path d="m476.63 330.63c2.06 2.06 4.91 3.34 8.06 3.35h-25.19c-3.15-.01-6-1.29-8.06-3.35-2.07-2.07-3.35-4.93-3.35-8.09 0-6.31 5.1-11.42 11.41-11.44h25.19c-6.31.02-11.41 5.13-11.41 11.44 0 3.16 1.28 6.02 3.35 8.09z" fill="#c32430"/><path d="m31.28 333.98h-19.18c-2.39-7.48-4.45-15.11-6.15-22.88h25.33c-3.15.01-6 1.29-8.06 3.35-2.07 2.07-3.35 4.93-3.35 8.09 0 6.31 5.1 11.42 11.41 11.44z" fill="#c32430"/><path d="m395.41 470.74c-40.11 26.1-87.99 41.26-139.41 41.26s-99.3-15.16-139.41-41.26z" fill="#d0e2e7"/><path d="m451.133 35.601c-9.011 81.328-5.978 187.164 33.557 226.699 0 .001-33.557-100.711-33.557-226.699z" fill="#4a81f6"/><path d="m113.553 35.601c9.011 81.328 5.978 187.164-33.557 226.699.001.001 33.557-100.711 33.557-226.699z" fill="#4a81f6"/></g></svg>