<?xml version="1.0" encoding="iso-8859-1"?>
<!-- Generator: Adobe Illustrator 19.0.0, SVG Export Plug-In . SVG Version: 6.00 Build 0)  -->
<svg version="1.1" id="Capa_1" xmlns="http://www.w3.org/2000/svg" xmlns:xlink="http://www.w3.org/1999/xlink" x="0px" y="0px"
	 viewBox="0 0 512.001 512.001" style="enable-background:new 0 0 512.001 512.001;" xml:space="preserve">
<path style="fill:#87DCFA;" d="M503.896,258.489c0,136.021-110.064,247.863-247.863,247.863
	c-137.441,0-247.863-111.504-247.863-247.863c0-136.891,110.972-247.863,247.863-247.863
	C393.179,10.627,503.896,121.833,503.896,258.489z"/>
<path style="fill:#4BCDD7;" d="M503.896,258.489c0,1.091-0.01,2.173-0.02,3.254c-0.041,2.938-0.122,5.855-0.275,8.772
	c-0.031,0.857-0.082,1.724-0.133,2.581c-0.01,0.153-0.02,0.296-0.031,0.449c-0.847,14.128-2.887,27.949-6.018,41.373H305.189
	c-6.865,0-12.445,5.569-12.445,12.445v176.296c-1.703,0.255-3.407,0.49-5.121,0.704c-5.6,0.704-11.261,1.234-16.984,1.561
	c-4.039,0.235-8.12,0.377-12.23,0.408c-0.785,0.02-1.581,0.02-2.377,0.02c-4.906,0-9.782-0.143-14.607-0.428
	c-2.754-0.163-5.488-0.367-8.211-0.612V327.363c0-6.875-5.57-12.445-12.445-12.445H19.758c-2.601-11.139-4.427-22.553-5.457-34.192
	H9.17c-0.214-2.387-0.398-4.774-0.541-7.181c-0.01-0.153-0.02-0.296-0.031-0.449c-0.051-0.857-0.102-1.724-0.133-2.581
	c-0.153-2.917-0.235-5.835-0.275-8.772c-0.01-1.081-0.02-2.163-0.02-3.254c0-2.336,0.031-4.662,0.102-6.977h208.489
	c9.089,0,16.453-7.375,16.453-16.453V11.678c2.724-0.255,5.457-0.459,8.211-0.622c4.835-0.286,9.701-0.428,14.607-0.428
	c0.796,0,1.591,0,2.377,0.02c4.101,0.031,8.181,0.173,12.23,0.408c5.712,0.337,11.374,0.857,16.984,1.571
	c1.714,0.214,3.417,0.449,5.121,0.704v221.729c0,9.078,7.365,16.453,16.453,16.453h194.595
	C503.865,253.828,503.896,256.154,503.896,258.489z"/>
<path style="fill:#AA6432;" d="M482.923,262.121v29.214h-195.83c-9.089,0-16.453,7.365-16.453,16.453v198.135
	c-4.825,0.286-9.701,0.428-14.607,0.428c-4.906,0-9.782-0.143-14.607-0.428V307.789c0-9.089-7.365-16.453-16.453-16.453H36.722
	v-29.214h188.251c9.089,0,16.453-7.365,16.453-16.453V11.055c4.835-0.286,9.701-0.428,14.607-0.428
	c4.906,0,9.772,0.143,14.607,0.428v234.612c0,9.089,7.365,16.453,16.453,16.453L482.923,262.121L482.923,262.121z"/>
<path style="fill:#1E9682;" d="M98.2,297.323c-9.537,10.558-13.485,25.012-10.313,38.884c6.6,28.806,26.368,81.829,85.246,155.956
	c-19.289-6.834-37.467-15.994-54.206-27.133C52.053,420.535,8.171,344.459,8.171,258.489V33.282
	c0-15.26,12.373-27.633,27.633-27.633h137.33c9.66,0,18.045,4.927,22.982,12.271c3.611,5.396,5.365,12.088,4.386,19.116
	C192.453,95.128,167.686,220.462,98.2,297.323z"/>
<path style="fill:#3CAF96;" d="M64.529,297.323c-9.537,10.558-13.485,25.012-10.313,38.884C59.979,361.372,75.79,405,118.928,465.03
	C52.053,420.535,8.171,344.459,8.171,258.489V33.282c0-15.26,12.373-27.633,27.633-27.633h103.658
	c9.66,0,18.045,4.927,22.982,12.271c3.611,5.396,5.365,12.088,4.386,19.116C158.781,95.128,134.014,220.462,64.529,297.323z"/>
<path style="fill:#147D73;" d="M98.404,320.787H7.694c-4.232,0-7.694-3.462-7.694-7.694v-14.056c0-4.232,3.462-7.694,7.694-7.694
	h90.71c4.232,0,7.694,3.462,7.694,7.694v14.056C106.098,317.325,102.636,320.787,98.404,320.787z"/>
<path style="fill:#1E9682;" d="M503.835,33.282v230.501c-1.724,81.961-43.393,154.65-106.749,198.594
	c-17.841,12.373-37.405,22.462-58.276,29.847c58.918-74.158,78.707-127.211,85.297-156.017c3.172-13.873-0.765-28.327-10.303-38.884
	c-69.486-76.861-94.253-202.195-102.311-260.287c-0.969-7.038,0.785-13.74,4.417-19.136c4.927-7.344,13.312-12.251,22.961-12.251
	h137.33C491.461,5.649,503.835,18.022,503.835,33.282z"/>
<path style="fill:#3CAF96;" d="M503.835,33.282v230.501c-1.724,81.961-43.393,154.65-106.749,198.594
	c41.71-58.663,57.143-101.393,62.815-126.17c3.172-13.873-0.765-28.327-10.303-38.884
	c-69.486-76.861-94.253-202.195-102.311-260.287c-0.969-7.038,0.785-13.74,4.417-19.136c4.927-7.344,13.312-12.251,22.961-12.251
	h101.536C491.461,5.649,503.835,18.022,503.835,33.282z"/>
<g>
	<path style="fill:#147D73;" d="M413.597,320.787h90.71c4.232,0,7.694-3.462,7.694-7.694v-14.056c0-4.232-3.462-7.694-7.694-7.694
		h-90.71c-4.232,0-7.694,3.462-7.694,7.694v14.056C405.902,317.325,409.364,320.787,413.597,320.787z"/>
	<path style="fill:#147D73;" d="M503.896,30.569v55.562H8.171V30.569c0-13.699,11.21-24.92,24.92-24.92h445.885
		C492.685,5.649,503.896,16.87,503.896,30.569z"/>
</g>
<path style="fill:#1E9682;" d="M503.896,30.569v17.473H8.171V30.569c0-13.699,11.21-24.92,24.92-24.92h445.885
	C492.685,5.649,503.896,16.87,503.896,30.569z"/>
<g>
	<path style="fill:#FFF5F5;" d="M168.814,381.063c-2.112,0-4.213-0.869-5.725-2.572c-2.804-3.16-2.516-7.995,0.644-10.8
		l39.396-34.97c3.159-2.805,7.994-2.517,10.8,0.643c2.804,3.16,2.516,7.995-0.644,10.8l-39.396,34.97
		C172.432,380.427,170.619,381.063,168.814,381.063z"/>
	<path style="fill:#FFF5F5;" d="M322.289,441.438c-2.112,0.052-4.232-0.765-5.786-2.431c-2.881-3.091-2.71-7.932,0.379-10.813
		l38.53-35.922c3.09-2.882,7.93-2.711,10.813,0.378c2.881,3.091,2.71,7.932-0.379,10.813l-38.53,35.922
		C325.891,440.714,324.094,441.394,322.289,441.438z"/>
	<path style="fill:#FFF5F5;" d="M168.814,430.61c-2.11,0-4.213-0.869-5.725-2.572c-2.804-3.16-2.516-7.995,0.644-10.8l39.396-34.971
		c3.159-2.805,7.995-2.517,10.8,0.643c2.804,3.16,2.516,7.995-0.644,10.8l-39.396,34.971
		C172.432,429.975,170.619,430.61,168.814,430.61z"/>
	<path style="fill:#FFF5F5;" d="M308.185,239.512c-1.905,0-3.814-0.708-5.297-2.132c-3.048-2.927-3.146-7.77-0.219-10.817
		l25.528-26.585c2.924-3.046,7.768-3.146,10.817-0.219c3.048,2.927,3.146,7.77,0.219,10.817l-25.528,26.585
		C312.202,238.725,310.196,239.512,308.185,239.512z"/>
	<path style="fill:#FFF5F5;" d="M334.776,384.873c-1.905,0.047-3.83-0.614-5.348-2.002c-3.118-2.851-3.335-7.69-0.484-10.808
		l24.872-27.2c2.849-3.116,7.689-3.336,10.807-0.484c3.118,2.851,3.335,7.69,0.483,10.809l-24.872,27.2
		C338.773,383.988,336.786,384.824,334.776,384.873z"/>
	<path style="fill:#FFF5F5;" d="M196.161,169.479c-2.058,0-4.11-0.825-5.617-2.454c-2.869-3.102-2.682-7.942,0.419-10.812
		l27.053-25.031c3.103-2.869,7.942-2.682,10.812,0.419c2.869,3.102,2.682,7.942-0.419,10.812l-27.053,25.031
		C199.882,168.805,198.02,169.479,196.161,169.479z"/>
	<path style="fill:#FFF5F5;" d="M181.104,221.983c-2.058,0-4.11-0.825-5.617-2.454c-2.869-3.102-2.682-7.942,0.419-10.812
		l27.053-25.031c3.102-2.869,7.943-2.681,10.812,0.419c2.869,3.102,2.682,7.942-0.419,10.812l-27.053,25.031
		C184.825,221.309,182.963,221.983,181.104,221.983z"/>
</g>
<g>
</g>
<g>
</g>
<g>
</g>
<g>
</g>
<g>
</g>
<g>
</g>
<g>
</g>
<g>
</g>
<g>
</g>
<g>
</g>
<g>
</g>
<g>
</g>
<g>
</g>
<g>
</g>
<g>
</g>
</svg>
