<svg height="512pt" viewBox="0 0 512 512" width="512pt" xmlns="http://www.w3.org/2000/svg"><path d="m512 256c0 141.378906-114.621094 256-256 256-42.621094 0-82.800781-10.421875-118.148438-28.851562-81.921874-42.679688-137.851562-128.386719-137.851562-227.148438s55.929688-184.46875 137.851562-227.148438c35.347657-18.429687 75.527344-28.851562 118.148438-28.851562 141.378906 0 256 114.621094 256 256zm0 0" fill="#1a2b63"/><path d="m256 512c50.039062 0 96.714844-14.371094 136.152344-39.1875-13.535156-62.761719-69.347656-109.792969-136.152344-109.792969s-122.617188 47.035157-136.152344 109.792969c39.4375 24.816406 86.113282 39.1875 136.152344 39.1875zm0 0" fill="#ffd00d"/><path d="m280.9375 365.25c-8.089844-1.464844-16.421875-2.230469-24.9375-2.230469-66.804688 0-122.617188 47.035157-136.152344 109.792969 14.390625 9.054688 29.75 16.710938 45.878906 22.796875 3.632813-65.480469 52.097657-118.996094 115.210938-130.359375zm0 0" fill="#ffaf10"/><path d="m200.089844 374.703125c-3.550782 6.554687-5.570313 14.058594-5.570313 22.035156 0 25.574219 20.734375 46.308594 46.3125 46.308594s46.3125-20.734375 46.3125-46.308594c0-12.71875-5.128906-24.234375-13.429687-32.605469-5.800782-.734374-11.710938-1.113281-17.714844-1.113281-19.886719 0-38.796875 4.175781-55.910156 11.683594zm0 0" fill="#ffaf10"/><path d="m275.714844 366.300781c-.644532-.738281-1.308594-1.46875-2-2.164062-5.800782-.738281-11.710938-1.117188-17.714844-1.117188-19.886719 0-38.796875 4.175781-55.910156 11.683594-3.550782 6.554687-5.570313 14.058594-5.570313 22.035156 0 6.058594 1.175781 11.835938 3.292969 17.140625 19.613281-23.648437 46.832031-40.75 77.902344-47.578125zm0 0" fill="#ff9518"/><path d="m353.796875 465.070312c0 14.441407-11.707031 26.148438-26.144531 26.148438-14.441406 0-26.144532-11.707031-26.144532-26.148438 0-14.4375 11.703126-26.144531 26.144532-26.144531 14.4375 0 26.144531 11.707031 26.144531 26.144531zm0 0" fill="#ffaf10"/><path d="m294.441406 98.863281c0-10.03125-8.132812-18.167969-18.164062-18.167969h-169.667969c-10.035156 0-18.167969 8.132813-18.167969 18.167969 0 10.035157 8.132813 18.167969 18.167969 18.167969h27.800781c10.03125 0 18.167969 8.132812 18.167969 18.167969 0 10.03125 8.132813 18.164062 18.164063 18.164062h169.667968c10.035156 0 18.167969-8.132812 18.167969-18.164062 0-10.035157-8.132813-18.167969-18.167969-18.167969h-27.800781c-10.035156 0-18.167969-8.132812-18.167969-18.167969zm0 0" fill="#293d7c"/><path d="m235.515625 219.667969c0-10.035157 8.132813-18.167969 18.167969-18.167969h99.667968c10.03125 0 18.167969 8.132812 18.167969 18.167969 0 10.03125 8.132813 18.167969 18.164063 18.167969h45c10.035156 0 18.167968 8.132812 18.167968 18.164062 0 10.035156-8.132812 18.167969-18.167968 18.167969h-12.824219c-10.03125 0-18.167969 8.132812-18.167969 18.167969 0 10.03125-8.132812 18.167968-18.164062 18.167968h-247.515625c-10.03125 0-18.164063-8.136718-18.164063-18.167968 0-10.035157 8.132813-18.167969 18.164063-18.167969h170.265625c10.03125 0 18.164062-8.132813 18.164062-18.167969 0-10.03125-8.132812-18.164062-18.164062-18.164062h-54.59375c-10.035156-.003907-18.167969-8.136719-18.167969-18.167969zm0 0" fill="#293d7c"/><path d="m512 0v256c0 85.300781-41.71875 160.859375-105.878906 207.378906-10.121094 7.339844-20.800782 13.960938-31.972656 19.769532 3.980468-51.96875 22.042968-162 102.429687-227.148438-80.386719-65.148438-98.449219-175.179688-102.429687-227.148438-1.359376-17.851562-1.070313-28.851562-1.070313-28.851562zm0 0" fill="#fe3745"/><path d="m506.578125 256c-71.277344 57.769531-93.546875 150.800781-100.457031 207.378906-10.121094 7.339844-20.800782 13.960938-31.972656 19.769532 3.980468-51.96875 22.042968-162 102.429687-227.148438-80.386719-65.148438-98.449219-175.179688-102.429687-227.148438-1.359376-17.851562-1.070313-28.851562-1.070313-28.851562h30s-.519531 19.46875 3.042969 48.621094c6.910156 56.578125 29.179687 149.609375 100.457031 207.378906zm0 0" fill="#b7092b"/><path d="m512 207.496094v-56.15625c-30.921875-76.058594-28.914062-151.339844-28.914062-151.339844h-30s-3.144532 117.738281 58.914062 207.496094zm0 0" fill="#b7092b"/><path d="m512 231v25c0 8.441406-.410156 16.78125-1.210938 25h-60.210937c-5.199219 0-9.417969-4.21875-9.417969-9.421875v-31.15625c0-5.203125 4.21875-9.421875 9.417969-9.421875zm0 0" fill="#d9eafc"/><path d="m471.160156 271.578125v-31.15625c0-5.203125 4.21875-9.421875 9.417969-9.421875h-30c-5.199219 0-9.417969 4.21875-9.417969 9.421875v31.15625c0 5.203125 4.21875 9.421875 9.417969 9.421875h30c-5.199219 0-9.417969-4.21875-9.417969-9.421875zm0 0" fill="#c3ddf4"/><path d="m35.421875 256c80.386719 65.148438 98.449219 175.179688 102.429687 227.148438-81.921874-42.679688-137.851562-128.386719-137.851562-227.148438v-256h138.921875s.289063 11-1.070313 28.851562c-3.980468 51.96875-22.042968 162-102.429687 227.148438zm0 0" fill="#fe3745"/><path d="m0 151.339844v56.15625c62.058594-89.757813 58.914062-207.496094 58.914062-207.496094h-30s2.007813 75.28125-28.914062 151.339844zm0 0" fill="#b7092b"/><path d="m35.421875 256c80.386719 65.148438 98.449219 175.179688 102.429687 227.148438-11.171874-5.808594-21.851562-12.429688-31.972656-19.769532-6.910156-56.578125-29.179687-149.609375-100.457031-207.378906 71.277344-57.769531 93.546875-150.800781 100.457031-207.378906 3.5625-29.152344 3.042969-48.621094 3.042969-48.621094h30s.289063 11-1.070313 28.851562c-3.980468 51.96875-22.042968 162-102.429687 227.148438zm0 0" fill="#b7092b"/><path d="m70.839844 240.421875v31.15625c0 5.203125-4.21875 9.421875-9.417969 9.421875h-60.210937c-.800782-8.21875-1.210938-16.558594-1.210938-25v-25h61.421875c5.199219 0 9.417969 4.21875 9.417969 9.421875zm0 0" fill="#d9eafc"/><path d="m61.421875 231h-30c5.199219 0 9.417969 4.21875 9.417969 9.421875v31.15625c0 5.203125-4.21875 9.421875-9.417969 9.421875h30c5.199219 0 9.417969-4.21875 9.417969-9.421875v-31.15625c0-5.203125-4.21875-9.421875-9.417969-9.421875zm0 0" fill="#c3ddf4"/></svg>